<?xml version="1.0" encoding="UTF-8"?>
<!DOCTYPE svg PUBLIC "-//W3C//DTD SVG 1.1//EN" "http://www.w3.org/Graphics/SVG/1.1/DTD/svg11.dtd">
<!-- Creator: CorelDRAW (Versão de avaliação) -->
<svg xmlns="http://www.w3.org/2000/svg" xml:space="preserve" width="456mm" height="456mm" version="1.1" style="shape-rendering:geometricPrecision; text-rendering:geometricPrecision; image-rendering:optimizeQuality; fill-rule:evenodd; clip-rule:evenodd"
viewBox="0 0 45499.07 60685.81"
 xmlns:xlink="http://www.w3.org/1999/xlink"
 xmlns:xodm="http://www.corel.com/coreldraw/odm/2003">
 <defs>
  <style type="text/css">
   <![CDATA[
    .str0 {stroke:#131C25;stroke-width:236.03;stroke-miterlimit:22.9256}
    .fil2 {fill:#677D9A}
    .fil0 {fill:#131C25}
    .fil1 {fill:#CBD1CF}
    .fil3 {fill:#CBD1CF}
   ]]>
  </style>
 </defs>
 <g id="Camada_x0020_1">
  <metadata id="CorelCorpID_0Corel-Layer"/>
  <path class="fil0 str0" d="M22778.49 34124.82c1595.65,0 2889.14,1293.49 2889.14,2889.14 0,1595.65 -1293.49,2889.14 -2889.14,2889.14 -1595.65,0 -2889.14,-1293.49 -2889.14,-2889.14 0,-1595.65 1293.49,-2889.14 2889.14,-2889.14zm-3719.85 -1892.63c5048.32,-3852.99 11237.1,1295.81 8761.21,7907.21 -456.27,1218.18 -3901.63,8961.82 -5461.76,8135.48 -1550.58,-821.25 -4883.5,-7981.19 -5217.25,-9557.21 -577.72,-2727.98 125.82,-4458.11 1917.8,-6485.49zm-12724.5 -12621.43c-1692.29,7618.17 2117.15,15387.96 9164.83,18719.45l-6.25 -1496.42c-6270.87,-3278.3 -9508.75,-10411.12 -7837.34,-17296.3 1679.62,-6919.18 7879.55,-11787.78 14999.78,-11778.41 7120.05,9.28 13307.4,4893.76 14968.91,11817.41 1661.51,6923.55 -1635.09,14084.3 -7975.57,17323.78l0 1489.01c7111.93,-3290.08 10979.74,-11082.09 9300.47,-18736.05 -1679.44,-7653.78 -8454.42,-13110.63 -16290.24,-13120.89 -7836,-10.26 -14625.25,5429.01 -16324.6,13078.42zm-1747.89 -2691.84c-2824.09,7769.07 -322.95,16470.14 6190.29,21554.96 639.21,282.26 1002.4,-205.25 631.8,-810.27 -6158.52,-4814.61 -8525.89,-13046.65 -5857.17,-20400.41 2678.99,-7382.5 9820.01,-12190.24 17669.49,-11896.29 7849.57,293.86 14610.98,5622.21 16730.09,13184.16 2119.2,7562.04 -866.4,15612.39 -7420.51,19941.02 -364.98,512.76 -192.4,1054.96 548.99,839.1 6902.76,-4582.51 10059.26,-13094.57 7812.62,-21068.35 -2246.63,-7973.96 -9382.93,-13587.25 -17663.24,-13893.6 -8280.22,-306.53 -15812.29,4763.92 -18642.35,12549.69zm18458.79 38268.9c-280.12,476.53 -605.12,213.28 -824.46,0 -219.34,-213.37 -472.15,-600.3 -472.15,-600.3 -4035.93,-4948.73 -14798.82,-17125.41 -17055.72,-22062.99 -4352.99,-9523.48 -2116.44,-19664.74 6684.66,-26026.55 18567.66,-10928.6 38826.54,8484.85 28951.83,26084.11l-806.44 1437.16c-991.42,1563.17 -2116.53,3096.8 -3189.25,4612.85 -3814.35,5401.52 -9020.09,11335.17 -13288.48,16555.72zm62.02 2967.13c-300.82,522.13 -650,233.71 -885.59,0 -235.59,-233.71 -507.31,-657.59 -507.31,-657.59 -4335.5,-5421.96 -15897.51,-18762.64 -18321.99,-24172.38 -4676.12,-10433.87 -2273.58,-21544.61 7181,-28514.66 19946.29,-11973.39 41709.26,9296.01 31101.37,28577.84l-866.31 1574.5c-1064.96,1712.64 -2273.58,3392.89 -3426.08,5053.86 -4097.5,5917.94 -9689.81,12418.87 -14275.09,18138.43zm-0.98 2102.69c-314.03,552.73 -678.38,247.45 -924.23,0 -245.85,-247.45 -529.35,-696.23 -529.35,-696.23 -4524.32,-5740.09 -16589.72,-19863.83 -19119.77,-25590.98 -4879.75,-11046.22 -2372.55,-22809.19 7493.6,-30188.21 20814.83,-12676.14 43525.41,9841.61 32455.64,30255.05l-903.97 1666.95c-1111.36,1813.12 -2372.64,3591.97 -3575.29,5350.48 -4275.98,6265.25 -10111.73,13147.66 -14896.62,19202.94z"/>
  <path class="fil1" d="M13739.75 14636.94c132.25,-329.91 390.14,-971.7 698.46,-1525.33 308.31,-553.63 666.87,-1019.27 1088.43,-1412.45 421.56,-393.27 906.02,-714.08 1264.67,-899.69 358.64,-185.61 591.37,-236.03 852.48,-273.78 261.11,-37.75 550.5,-62.91 2107.69,-81.74 1557.19,-18.92 4382.08,-31.5 5932.93,-6.34 1550.94,25.16 1827.84,88.17 2114.12,198.28 286.27,110.03 581.92,267.35 871.31,475.01 289.49,207.57 572.55,465.46 994.1,1012.84 421.56,547.38 981.52,1384.25 1292.96,1890.76 311.44,506.42 374.35,682.57 468.67,786.45 94.41,103.78 220.24,135.19 476.62,149.29 256.47,14.1 643.49,10.71 1052.02,5 408.53,-5.71 838.47,-13.92 1152.77,21.51 314.38,35.34 512.94,114.22 685.7,225.77 172.76,111.55 319.74,255.75 424.41,423.07 104.76,167.32 167.41,357.84 157.86,578.26 -9.55,220.33 -91.11,470.64 -215.6,717.29 -124.49,246.65 -291.72,489.73 -436.46,647.24 -144.65,157.5 -266.64,229.43 -424.68,259.23 -158.04,29.72 -352.04,17.13 -497.59,3.12 -145.46,-14.1 -242.46,-29.81 -303.5,-32.93 -61.04,-3.12 -86.02,6.34 -95.48,25.16 -9.37,18.74 -3.03,46.85 142.42,209.26 145.55,162.41 430.21,459.13 706.49,770.29 276.37,311.17 544.17,636.97 728.8,930.21 184.63,293.14 285.92,553.72 358.29,926.55 72.46,372.83 115.83,857.84 144.74,1295.81 29,437.98 43.55,828.83 29.63,2057.54 -13.83,1228.62 -55.95,3294.99 -122.88,4419.74 -66.84,1124.74 -158.49,1307.95 -279.22,1499.45 -120.65,191.41 -270.57,391.22 -470.37,616 -199.8,224.79 -449.58,474.56 -782.61,624.48 -333.03,149.83 -749.24,199.71 -1153.03,216.4 -403.8,16.69 -795.1,0 -1128.14,-49.88 -333.03,-49.97 -607.7,-133.23 -853.37,-258.07 -245.58,-124.93 -461.98,-291.45 -599.41,-441.28 -137.34,-149.92 -195.61,-283.06 -224.79,-541.13 -29.09,-258.16 -29.09,-641.08 -30.25,-865.24 -1.16,-224.16 -3.39,-289.4 -32.93,-325.63 -29.54,-36.23 -86.38,-43.28 -247.1,-78.08 -160.63,-34.8 -425.13,-97.27 -906.92,-172.58 -481.79,-75.32 -1180.7,-163.48 -2005.6,-235.85 -824.91,-72.46 -1775.82,-129.13 -2818.02,-170 -1042.11,-40.96 -2175.51,-66.21 -3120.09,-15.79 -944.58,50.33 -1700.24,176.33 -2547.18,308.58 -846.95,132.16 -1785.19,270.75 -2326.68,343.21 -541.58,72.37 -686.41,78.62 -771.37,113.33 -85.04,34.62 -110.3,97.54 -122.88,289.66 -12.58,192.04 -12.58,513.11 -34.62,727.28 -22.04,214.08 -66.12,321.08 -132.25,437.62 -66.12,116.45 -154.2,242.46 -239.16,330.62 -85.04,88.17 -166.96,138.5 -261.38,198.37 -94.5,59.79 -201.5,129.04 -311.71,182.58 -110.21,53.54 -223.63,91.29 -321.16,116.54 -97.63,25.16 -179.55,37.75 -314.83,48.28 -135.28,10.44 -324.02,18.83 -525.16,23.02 -201.14,4.19 -414.77,4.19 -584.5,1.52 -169.73,-2.77 -295.73,-8.3 -438.07,-19.19 -142.42,-10.98 -301.18,-27.4 -402.46,-43.82 -101.37,-16.42 -145.1,-32.93 -213.54,-71.21 -68.44,-38.37 -161.61,-98.61 -268.34,-172.5 -106.82,-73.98 -227.29,-161.52 -344.99,-249.15 -117.79,-87.63 -232.73,-175.26 -328.57,-262.89 -95.84,-87.63 -172.5,-175.17 -246.38,-262.8 -73.98,-87.63 -145.1,-175.26 -199.89,-251.92 -54.79,-76.65 -93.07,-142.42 -131.18,-299.84 -38.1,-157.41 -76.03,-406.48 -94.95,-817.59 -18.92,-411.12 -18.92,-984.2 -12.58,-2202.82 6.25,-1218.62 18.83,-3082.7 32.21,-4247.69 13.3,-1165.08 27.49,-1631.08 70.23,-1973.57 42.74,-342.49 114.22,-561.48 221.4,-749.59 107.08,-188.11 249.95,-345.26 478.67,-584.06 228.63,-238.8 543.01,-559.25 741.65,-753.7 198.64,-194.45 281.54,-262.89 348.2,-325.89 66.57,-63.09 116.99,-120.65 113.42,-162.05 -3.66,-41.41 -61.22,-66.66 -200.25,-91.11 -139.12,-24.45 -359.71,-48.28 -559.25,-91.47 -199.53,-43.19 -378.01,-105.84 -529.71,-210.15 -151.7,-104.41 -276.55,-250.4 -378.1,-437.8 -101.64,-187.4 -179.9,-416.02 -217.47,-580.49 -37.66,-164.46 -34.45,-264.77 -23.47,-371.23 10.98,-106.55 29.72,-219.26 78.89,-347.85 49.17,-128.59 128.68,-272.89 177.49,-375.69 48.72,-102.8 66.75,-164.11 117.17,-214.53 50.42,-50.42 133.32,-90.13 288.24,-108.16 154.92,-18.03 381.85,-14.37 718.72,-10.71 336.87,3.57 783.59,7.14 1106.09,18.03 322.41,10.8 520.52,28.73 693.46,35.96 172.94,7.23 320.72,3.57 431.82,-9.1 111.1,-12.67 185.61,-34.36 233.18,-53.9 47.47,-19.63 67.91,-37.12 81.47,-54.79 13.47,-17.76 19.99,-35.78 152.24,-365.6zm-2192.82 1483.3c210.15,0 567.73,0 768.51,28.29 200.69,28.2 244.69,84.6 266.64,159.91 21.95,75.23 21.95,169.37 -6.25,257.18 -28.29,87.81 -84.69,169.37 -185.08,197.66 -100.39,28.2 -244.69,3.03 -423.43,-15.71 -178.83,-18.83 -392.11,-31.41 -548.9,-75.32 -156.88,-43.9 -257.27,-119.13 -304.3,-206.94 -47.12,-87.9 -40.78,-188.2 -15.71,-247.81 25.08,-59.61 68.98,-78.44 122.34,-87.81 53.27,-9.46 116.01,-9.46 326.16,-9.46zm21068.71 24.9c106.01,-1.52 302.6,-1.52 460.2,3.21 157.68,4.64 276.37,14.01 394.96,29.63 118.6,15.62 237.19,37.48 291.81,98.34 54.61,60.86 45.24,160.81 10.89,243.53 -34.27,82.63 -93.61,148.22 -165.45,193.47 -71.75,45.24 -155.99,70.23 -243.44,74.96 -87.36,4.64 -177.94,-10.98 -273.15,-24.99 -95.13,-14.1 -195.07,-26.59 -277.8,-53.1 -82.63,-26.59 -148.22,-67.11 -205.96,-106.1 -57.74,-39.09 -107.62,-76.48 -146.71,-110.83 -39,-34.36 -67.11,-65.5 -87.45,-93.61 -20.26,-28.11 -32.66,-53.1 -42.03,-87.45 -9.37,-34.36 -15.62,-77.99 3.93,-109.58 19.54,-31.59 64.88,-50.95 93.16,-57.29 28.29,-6.34 39.44,0.45 52.65,2.41 13.3,1.87 28.47,-1.16 134.39,-2.59zm-15296.41 -67.28c2599.12,-5.18 7769.25,-9.99 10344.73,-12.4 2575.47,-2.41 2556.29,-2.41 2156.59,-574.6 -399.6,-572.28 -1179.71,-1716.83 -1611.53,-2342.65 -431.73,-625.91 -515.26,-733.26 -2186.58,-772.44 -1671.32,-39.26 -4930.62,-10.53 -6637.01,9.37 -1706.39,19.9 -1860.06,30.88 -2362.02,599.76 -502.05,568.89 -1352.57,1695.68 -1815.98,2298.48 -463.41,602.71 -539.71,681.5 -565.85,729.25 -26.15,47.74 -2.05,64.61 24.09,70.23 26.15,5.62 54.35,0.18 2653.56,-5z"/>
  <path class="fil0 str0" d="M17945.68 26579.37l-605.74 -828.39 10273.78 0 -642.86 828.39 -9025.18 0zm-1562.72 -2331.32l12139.11 0 0 519.18 -12139.11 0 0 -519.18zm10016.42 -2091.81l-7960.93 0 -1160.62 1193.37 10249.51 -16.33 -1127.96 -1177.04zm-9773.52 -4352.63c2962.49,-14.99 8866.51,-34.62 11836.5,-12.05 2970.08,22.49 3005.95,87.1 3135.35,281.19 129.39,194 352.13,517.31 456.36,718.54 104.23,201.23 89.77,280.29 -565.58,534.17 -655.27,253.79 -1951.44,682.4 -2656.32,920.39 -704.79,237.91 -818.13,285.11 -874.88,337.14 -56.67,51.94 -56.67,108.69 205.6,392.2 262.27,283.51 786.71,793.76 1145.8,1086.73 359.18,292.97 552.91,368.64 734.78,418.25 181.95,49.62 352.04,73.17 463.05,80.31 111.1,7.05 163.04,-2.41 245.76,-28.38 82.72,-25.97 196.05,-68.53 361.41,-134.66 165.45,-66.12 382.83,-155.99 628.5,-318.93 245.76,-163.04 519.81,-399.34 727.73,-654.47 207.92,-255.13 349.63,-529.27 425.21,-819.82 75.67,-290.65 85.13,-597.71 89.86,-774.94 4.73,-177.22 4.73,-224.43 127.52,-21.24 122.88,203.1 368.64,656.79 492.41,944.31 123.86,287.52 125.74,408.97 128.5,589.41 2.77,180.44 6.34,419.86 13.56,1274.66 7.23,854.71 18.2,2324.81 0.09,3088.23 -18.12,763.42 -65.14,820.18 -126,907.81 -60.77,87.54 -135.28,205.96 -288.5,371.67 -153.13,165.62 -385.06,378.63 -529.35,496.96 -144.3,118.24 -201.14,141.89 -998.47,151.35 -797.24,9.46 -2335.07,4.73 -3120.53,-18.92 -785.47,-23.65 -818.57,-66.3 -825.71,-127.79 -7.05,-61.48 11.87,-141.98 378.54,-634.03 366.76,-492.14 1081.2,-1395.85 1476.25,-1916.37 395.14,-520.52 470.9,-657.68 482.68,-794.92 11.87,-137.25 -40.16,-274.4 -548.72,-788.86 -508.47,-514.45 -1473.57,-1406.02 -1983.3,-1892.63 -509.72,-486.7 -564.16,-568.35 -638.94,-608.33 -74.69,-39.98 -169.64,-38.28 -1651.07,-37.39 -1481.43,0.8 -4349.15,0.8 -5837.45,0.8 -1488.39,0 -1597.17,0 -1679.98,23.65 -82.81,23.65 -139.66,71.03 -641.26,620.02 -501.6,548.9 -1448.05,1599.49 -1949.65,2174.53 -501.6,574.95 -558.45,674.28 -570.23,768.96 -11.87,94.59 21.24,184.54 456.63,724.07 435.39,539.44 1272.97,1528.45 1684.71,2030.14 411.74,501.6 397.46,515.79 -411.74,522.93 -809.2,7.05 -2413.51,7.05 -3298.38,-7.14 -884.96,-14.19 -1050.59,-42.66 -1197.29,-101.73 -146.71,-59.16 -274.4,-149.12 -378.54,-246.12 -104.14,-97 -184.54,-201.05 -248.44,-295.73 -63.89,-94.68 -111.28,-179.81 -149.12,-262.62 -37.84,-82.9 -66.21,-163.3 -77.99,-1090.83 -11.87,-927.53 -7.14,-2702.19 6.78,-3629.45 13.83,-927.26 36.94,-1007.13 165.8,-1250.84 128.77,-243.71 363.28,-651.07 490.54,-872.03 127.16,-221.04 146.88,-255.66 210.33,-71.21 63.36,184.36 170.35,587.81 273.24,923.25 102.89,335.44 201.68,602.98 306.71,782.07 104.94,179.01 216.04,269.59 316.97,349.9 100.84,80.22 191.32,150.19 294.3,205.78 102.89,55.51 218.1,96.73 349.81,127.61 131.71,30.88 279.94,51.4 395.23,63.8 115.21,12.31 197.48,16.42 304.57,28.82 107,12.31 238.71,32.84 382.83,32.84 144.03,0 300.37,-20.52 425.93,-45.24 125.56,-24.72 220.24,-53.45 300.55,-109.05 80.22,-55.59 146.08,-137.87 253.08,-242.81 107,-105.03 255.22,-232.64 419.86,-360.25 164.64,-127.61 345.7,-255.13 473.31,-364.18 127.61,-109.14 201.77,-199.71 236.75,-308.76 34.98,-109.14 30.79,-236.66 28.56,-301 -2.32,-64.34 -2.86,-65.5 -29.89,-80.31 -27.13,-14.9 -80.85,-43.55 -343.92,-72.19 -263.16,-28.65 -735.67,-57.29 -1070.31,-107.35 -334.73,-50.15 -531.67,-121.81 -764.32,-222.02 -232.73,-100.21 -501.25,-229.16 -789.39,-399.16 -288.24,-170.09 -596.01,-381.22 -756.82,-529.18 -160.89,-148.04 -174.73,-232.82 -89.77,-379.97 84.86,-147.15 268.43,-356.68 388.54,-492.05 120.02,-135.37 176.51,-196.5 224.79,-258.88 48.28,-62.38 88.26,-126 110.65,-168.3 22.4,-42.39 27.04,-63.63 39.89,-79.33 12.76,-15.79 33.55,-26.06 2996.05,-41.05z"/>
  <path class="fil1" d="M21748.43 54587.52c-4035.93,-4948.73 -14798.82,-17125.41 -17055.72,-22062.99 -4352.99,-9523.48 -2116.44,-19664.74 6684.66,-26026.55 18567.66,-10928.6 38826.54,8484.85 28951.83,26084.11l-806.44 1437.16c-991.42,1563.17 -2116.53,3096.8 -3189.25,4612.85 -3814.35,5401.52 -9020.09,11335.17 -13288.48,16555.72 -280.12,476.53 -605.12,213.28 -824.46,0 -219.34,-213.37 -472.15,-600.3 -472.15,-600.3zm473.05 3567.43c235.59,233.71 584.77,522.13 885.59,0 4585.27,-5719.57 10177.59,-12220.49 14275.09,-18138.43 1152.5,-1660.97 2361.13,-3341.22 3426.08,-5053.86l866.31 -1574.5c10607.89,-19281.83 -11155.09,-40551.23 -31101.37,-28577.84 -9454.59,6970.05 -11857.12,18080.78 -7181,28514.66 2424.48,5409.73 13986.49,18750.42 18321.99,24172.38 0,0 271.73,423.88 507.31,657.59z"/>
  <path class="fil2" d="M4586.25 16918.92c-2824.09,7769.07 -322.95,16470.14 6190.29,21554.96 639.21,282.26 1002.4,-205.25 631.8,-810.27 -6158.52,-4814.61 -8525.89,-13046.65 -5857.17,-20400.41 2678.99,-7382.5 9820.01,-12190.24 17669.49,-11896.29 7849.57,293.86 14610.98,5622.21 16730.09,13184.16 2119.2,7562.04 -866.4,15612.39 -7420.51,19941.02 -364.98,512.76 -192.4,1054.96 548.99,839.1 6902.76,-4582.51 10059.26,-13094.57 7812.62,-21068.35 -2246.63,-7973.96 -9382.93,-13587.25 -17663.24,-13893.6 -8280.22,-306.53 -15812.29,4763.92 -18642.35,12549.69z"/>
  <path class="fil3" d="M6334.14 19610.75c-1692.29,7618.17 2117.15,15387.96 9164.83,18719.45l-6.25 -1496.42c-6270.87,-3278.3 -9508.75,-10411.12 -7837.34,-17296.3 1679.62,-6919.18 7879.55,-11787.78 14999.78,-11778.41 7120.05,9.28 13307.4,4893.76 14968.91,11817.41 1661.51,6923.55 -1635.09,14084.3 -7975.57,17323.78l0 1489.01c7111.93,-3290.08 10979.74,-11082.09 9300.47,-18736.05 -1679.44,-7653.78 -8454.42,-13110.63 -16290.24,-13120.89 -7836,-10.26 -14625.25,5429.01 -16324.6,13078.42z"/>
  <path class="fil3" d="M19058.64 32232.19c-1791.97,2027.38 -2495.52,3757.51 -1917.8,6485.49 333.75,1576.02 3666.66,8735.96 5217.25,9557.21 1560.13,826.34 5005.49,-6917.31 5461.76,-8135.48 2475.88,-6611.4 -3712.89,-11760.21 -8761.21,-7907.21zm830.71 4781.77c0,-1595.65 1293.49,-2889.14 2889.14,-2889.14 1595.65,0 2889.14,1293.49 2889.14,2889.14 0,1595.65 -1293.49,2889.14 -2889.14,2889.14 -1595.65,0 -2889.14,-1293.49 -2889.14,-2889.14z"/>
 </g>
</svg>
