<?xml version="1.0" encoding="UTF-8"?>
<!DOCTYPE svg PUBLIC "-//W3C//DTD SVG 1.1//EN" "http://www.w3.org/Graphics/SVG/1.1/DTD/svg11.dtd">
<!-- Creator: CorelDRAW (Versão de avaliação) -->
<svg xmlns="http://www.w3.org/2000/svg" xml:space="preserve" width="456mm" height="456mm" version="1.1" style="shape-rendering:geometricPrecision; text-rendering:geometricPrecision; image-rendering:optimizeQuality; fill-rule:evenodd; clip-rule:evenodd"
viewBox="0 0 46609.85 46609.85"
 xmlns:xlink="http://www.w3.org/1999/xlink"
 xmlns:xodm="http://www.corel.com/coreldraw/odm/2003">
 <defs>
  <style type="text/css">
   <![CDATA[
    .str0 {stroke:#131C25;stroke-width:102.18;stroke-miterlimit:22.9256}
    .fil3 {fill:none}
    .fil2 {fill:#677D9A}
    .fil0 {fill:#131C25}
    .fil1 {fill:#CBD1CF}
   ]]>
  </style>
 </defs>
 <g id="Camada_x0020_1">
  <metadata id="CorelCorpID_0Corel-Layer"/>
  <path class="fil0 str0" d="M23118.48 25063.81c591.38,0 1070.77,495.77 1070.77,1107.32 0,611.55 -479.39,1107.28 -1070.77,1107.28 -591.38,0 -1070.77,-495.73 -1070.77,-1107.28 0,-611.55 479.39,-1107.32 1070.77,-1107.32zm-1378.63 -725.36c1871,-1476.68 4164.68,496.66 3247.08,3030.55 -169.09,466.87 -1446.04,3434.72 -2024.25,3118.01 -574.66,-314.78 -1809.92,-3058.9 -1933.62,-3662.92 -214.1,-1045.54 46.63,-1708.63 710.8,-2485.64zm-4715.96 -4837.3c-627.2,2919.75 784.66,5897.6 3396.67,7174.44l-2.32 -573.53c-2324.12,-1256.44 -3524.11,-3990.17 -2904.68,-6628.99 622.52,-2651.84 2920.33,-4517.77 5559.22,-4514.18 2638.86,3.55 4931.99,1875.56 5547.79,4529.13 615.8,2653.54 -605.99,5397.97 -2955.91,6639.54l0 570.68c2635.84,-1260.96 4069.29,-4247.35 3446.93,-7180.81 -622.4,-2933.39 -3133.35,-5024.78 -6037.49,-5028.73 -2904.18,-3.9 -5420.38,2080.73 -6050.2,5012.46zm-647.82 -1031.68c-1046.66,2977.58 -119.68,6312.36 2294.26,8261.17 236.89,108.21 371.53,-78.66 234.15,-310.53 -2282.47,-1845.27 -3159.85,-5000.29 -2170.79,-7818.71 992.89,-2829.39 3639.51,-4672.03 6548.67,-4559.38 2909.2,112.65 5415.13,2154.79 6200.52,5052.99 785.43,2898.23 -321.11,5983.64 -2750.19,7642.62 -135.25,196.52 -71.32,404.33 203.48,321.58 2558.31,-1756.26 3728.17,-5018.6 2895.49,-8074.65 -832.64,-3056.12 -3477.48,-5207.48 -6546.36,-5324.88 -3068.79,-117.48 -5860.32,1825.8 -6909.23,4809.8zm6841.2 14666.98c-103.8,182.65 -224.26,81.75 -305.54,0 -81.28,-81.78 -175,-230.06 -175,-230.06 -1495.76,-1896.65 -5484.74,-6563.51 -6321.17,-8455.91 -1613.32,-3649.98 -784.39,-7536.73 2477.45,-9974.97 6881.57,-4188.47 14389.91,3251.95 10730.15,9997.03l-298.9 550.82c-367.43,599.11 -784.43,1186.9 -1181.99,1767.93 -1413.67,2070.19 -3343.04,4344.32 -4925,6345.16zm22.99 1137.18c-111.45,200.12 -240.87,89.59 -328.18,0 -87.35,-89.55 -188.02,-252 -188.02,-252 -1606.83,-2078.03 -5891.96,-7191.01 -6790.51,-9264.37 -1733.04,-3998.87 -842.65,-8257.19 2661.42,-10928.53 7392.48,-4588.94 15458.28,3562.78 11526.79,10952.75l-321.07 603.47c-394.71,656.36 -842.65,1300.32 -1269.77,1936.95 -1518.63,2268.1 -3591.26,4759.65 -5290.65,6951.72zm-0.35 805.91c-116.4,211.82 -251.42,94.84 -342.55,0 -91.09,-94.84 -196.17,-266.83 -196.17,-266.83 -1676.8,-2199.95 -6148.48,-7613.07 -7086.16,-9808.04 -1808.53,-4233.6 -879.31,-8741.87 2777.27,-11569.98 7714.4,-4858.28 16131.37,3771.9 12028.7,11595.6l-335.02 638.86c-411.9,694.92 -879.35,1376.66 -1325.09,2050.64 -1584.73,2401.23 -3747.6,5039 -5520.98,7359.76z"/>
  <path class="fil1" d="M19768.56 17594.88c49.02,-126.44 144.6,-372.42 258.87,-584.58 114.24,-212.21 247.13,-390.65 403.36,-541.35 156.27,-150.7 335.79,-273.67 468.73,-344.79 132.93,-71.16 219.16,-90.48 315.93,-104.96 96.77,-14.45 204.06,-24.11 781.18,-31.29 577.09,-7.26 1624.06,-12.09 2198.83,-2.43 574.81,9.62 677.46,33.76 783.54,75.99 106.12,42.15 215.68,102.45 322.93,182.04 107.28,79.54 212.21,178.4 368.44,388.18 156.23,209.81 363.76,530.54 479.19,724.66 115.43,194.09 138.73,261.62 173.69,301.41 35,39.79 81.63,51.81 176.67,57.21 95.04,5.41 238.48,4.13 389.88,1.93 151.44,-2.2 310.76,-5.33 427.23,8.23 116.51,13.56 190.11,43.77 254.16,86.54 64.01,42.77 118.49,98.01 157.27,162.14 38.83,64.13 62.04,137.14 58.53,221.63 -3.55,84.45 -33.76,180.37 -79.93,274.91 -46.13,94.53 -108.09,187.71 -161.75,248.06 -53.62,60.38 -98.82,87.93 -157.39,99.36 -58.57,11.4 -130.46,6.57 -184.43,1.2 -53.89,-5.41 -89.86,-11.44 -112.46,-12.63 -22.64,-1.2 -31.87,2.43 -35.39,9.66 -3.48,7.19 -1.12,17.96 52.77,80.2 53.93,62.24 159.44,175.97 261.85,295.23 102.41,119.26 201.66,244.12 270.12,356.5 68.42,112.34 105.97,212.25 132.78,355.11 26.85,142.9 42.92,328.8 53.62,496.66 10.78,167.86 16.15,317.63 11.01,788.56 -5.14,470.89 -20.75,1262.85 -45.55,1693.91 -24.76,431.06 -58.76,501.29 -103.5,574.69 -44.7,73.36 -100.29,149.93 -174.31,236.08 -74.06,86.15 -166.62,181.88 -290.05,239.33 -123.43,57.45 -277.69,76.57 -427.35,82.94 -149.66,6.41 -294.69,0 -418.12,-19.12 -123.43,-19.12 -225.23,-51.03 -316.28,-98.9 -91.02,-47.87 -171.22,-111.69 -222.14,-169.13 -50.92,-57.45 -72.51,-108.48 -83.33,-207.38 -10.78,-98.94 -10.78,-245.7 -11.2,-331.62 -0.42,-85.92 -1.24,-110.91 -12.21,-124.78 -10.93,-13.91 -31.99,-16.61 -91.56,-29.94 -59.53,-13.33 -157.58,-37.28 -336.14,-66.14 -178.56,-28.86 -437.59,-62.66 -743.32,-90.4 -305.7,-27.78 -658.14,-49.49 -1044.39,-65.17 -386.25,-15.68 -806.29,-25.38 -1156.38,-6.03 -350.09,19.28 -630.13,67.57 -944.06,118.25 -313.89,50.65 -661.62,103.77 -862.31,131.54 -200.69,27.74 -254.39,30.13 -285.88,43.42 -31.52,13.29 -40.87,37.4 -45.55,111.03 -4.64,73.59 -4.64,196.64 -12.83,278.73 -8.15,82.05 -24.49,123.04 -49.02,167.74 -24.49,44.62 -57.14,92.91 -88.62,126.71 -31.52,33.76 -61.89,53.08 -96.85,76.03 -35.04,22.91 -74.71,49.45 -115.55,69.96 -40.83,20.51 -82.87,35 -119.03,44.66 -36.16,9.66 -66.52,14.49 -116.67,18.5 -50.14,4.02 -120.11,7.22 -194.63,8.85 -74.56,1.58 -153.76,1.58 -216.65,0.58 -62.89,-1.08 -109.6,-3.21 -162.33,-7.38 -52.81,-4.21 -111.65,-10.51 -149.16,-16.77 -37.59,-6.3 -53.78,-12.63 -79.16,-27.31 -25.38,-14.72 -59.88,-37.78 -99.44,-66.1 -39.6,-28.36 -84.26,-61.93 -127.87,-95.5 -43.65,-33.57 -86.27,-67.18 -121.77,-100.75 -35.54,-33.57 -63.94,-67.14 -91.33,-100.71 -27.43,-33.61 -53.78,-67.18 -74.1,-96.54 -20.28,-29.4 -34.46,-54.59 -48.6,-114.93 -14.14,-60.34 -28.16,-155.8 -35.19,-313.35 -6.99,-157.58 -6.99,-377.21 -4.67,-844.27 2.32,-467.03 6.99,-1181.45 11.94,-1627.96 4.94,-446.51 10.2,-625.15 26.04,-756.38 15.84,-131.27 42.34,-215.22 82.05,-287.31 39.68,-72.09 92.64,-132.32 177.4,-223.84 84.76,-91.52 201.27,-214.33 274.87,-288.85 73.63,-74.52 104.35,-100.75 129.07,-124.9 24.65,-24.18 43.35,-46.24 42.03,-62.12 -1.35,-15.88 -22.68,-25.54 -74.21,-34.92 -51.57,-9.39 -133.32,-18.5 -207.26,-35.04 -73.98,-16.57 -140.12,-40.56 -196.33,-80.55 -56.25,-40.02 -102.49,-96 -140.12,-167.82 -37.71,-71.82 -66.68,-159.44 -80.63,-222.48 -13.95,-63.01 -12.75,-101.45 -8.69,-142.24 4.06,-40.83 11.01,-84.06 29.24,-133.32 18.23,-49.29 47.67,-104.62 65.79,-143.98 18.04,-39.4 24.72,-62.89 43.42,-82.25 18.66,-19.32 49.41,-34.54 106.82,-41.45 57.41,-6.88 141.51,-5.49 266.37,-4.1 124.86,1.39 290.4,2.74 409.93,6.92 119.49,4.13 192.93,11.01 257.02,13.79 64.09,2.74 118.87,1.35 160.05,-3.52 41.18,-4.83 68.77,-13.13 86.42,-20.63 17.58,-7.53 25.15,-14.26 30.17,-21.02 5.02,-6.8 7.42,-13.71 56.44,-140.12zm-812.71 568.51c77.88,0 210.39,0 284.84,10.82 74.37,10.82 90.67,32.41 98.82,61.31 8.11,28.82 8.11,64.9 -2.32,98.55 -10.51,33.65 -31.41,64.9 -68.61,75.76 -37.2,10.82 -90.67,1.16 -156.92,-6.03 -66.29,-7.22 -145.33,-12.01 -203.44,-28.86 -58.14,-16.84 -95.34,-45.66 -112.77,-79.31 -17.46,-33.69 -15.11,-72.13 -5.83,-94.96 9.31,-22.87 25.57,-30.09 45.35,-33.69 19.74,-3.59 43,-3.59 120.88,-3.59zm7808.47 9.54c39.29,-0.62 112.15,-0.62 170.56,1.2 58.45,1.78 102.45,5.37 146.38,11.36 43.96,5.99 87.93,14.37 108.17,37.71 20.24,23.33 16.77,61.62 4.02,93.34 -12.71,31.68 -34.69,56.79 -61.31,74.14 -26.58,17.35 -57.83,26.93 -90.21,28.74 -32.41,1.78 -65.98,-4.21 -101.26,-9.58 -35.27,-5.41 -72.28,-10.2 -102.96,-20.36 -30.64,-10.2 -54.94,-25.69 -76.34,-40.64 -21.4,-14.99 -39.87,-29.32 -54.36,-42.5 -14.45,-13.17 -24.88,-25.11 -32.41,-35.89 -7.53,-10.74 -12.13,-20.32 -15.61,-33.49 -3.44,-13.17 -5.76,-29.9 1.47,-41.99 7.26,-12.13 24.07,-19.55 34.54,-21.98 10.47,-2.43 14.6,0.19 19.51,0.93 4.94,0.73 10.55,-0.42 49.8,-0.97zm-5669.13 -25.81c963.26,-1.97 2879.42,-3.82 3833.94,-4.75 954.53,-0.93 947.42,-0.93 799.3,-220.2 -148.12,-219.35 -437.24,-658.02 -597.29,-897.85 -160.01,-239.91 -190.96,-281.05 -810.39,-296.08 -619.43,-15.03 -1827.38,-4.02 -2459.79,3.59 -632.45,7.65 -689.39,11.86 -875.41,229.9 -186.09,218 -501.29,649.87 -673.05,880.89 -171.76,231.02 -200.04,261.19 -209.7,279.5 -9.7,18.27 -0.77,24.76 8.92,26.93 9.7,2.12 20.13,0.04 983.46,-1.93z"/>
  <path class="fil0 str0" d="M21327.38 22171.95l-224.53 -317.48 3807.67 0 -238.25 317.48 -3344.9 0zm-579.21 -893.53l4499 0 0 198.99 -4499 0 0 -198.99zm3712.29 -801.7l-2950.46 0 -430.17 457.37 3798.67 -6.26 -418.04 -451.11zm-3622.24 -1668.18c1097.97,-5.76 3286.1,-13.29 4386.85,-4.64 1100.75,8.61 1114.04,33.38 1162.02,107.78 47.94,74.37 130.5,198.26 169.13,275.37 38.63,77.15 33.26,107.44 -209.62,204.75 -242.84,97.28 -723.23,261.54 -984.51,352.75 -261.19,91.17 -303.19,109.25 -324.24,129.19 -20.98,19.93 -20.98,41.68 76.22,150.32 97.2,108.67 291.56,304.23 424.65,416.49 133.13,112.3 204.91,141.32 272.32,160.32 67.45,19.01 130.46,28.05 171.6,30.79 41.18,2.7 60.42,-0.93 91.09,-10.89 30.67,-9.97 72.67,-26.27 133.94,-51.61 61.31,-25.34 141.9,-59.76 232.95,-122.23 91.06,-62.47 192.66,-153.06 269.69,-250.84 77.07,-97.78 129.57,-202.82 157.62,-314.2 28.05,-111.38 31.52,-229.09 33.3,-297 1.74,-67.92 1.74,-86 47.25,-8.15 45.55,77.84 136.64,251.73 182.5,361.95 45.9,110.18 46.59,156.73 47.63,225.88 1,69.15 2.36,160.9 5.02,488.54 2.67,327.56 6.76,890.98 0.04,1183.58 -6.72,292.6 -24.15,314.35 -46.71,347.92 -22.52,33.57 -50.14,78.96 -106.93,142.48 -56.75,63.47 -142.71,145.1 -196.17,190.46 -53.51,45.32 -74.56,54.39 -370.06,57.99 -295.46,3.63 -865.44,1.82 -1156.53,-7.22 -291.09,-9.08 -303.38,-25.42 -306.04,-48.99 -2.59,-23.57 4.4,-54.43 140.31,-243 135.95,-188.64 400.73,-534.98 547.11,-734.48 146.45,-199.5 174.54,-252.08 178.91,-304.65 4.4,-52.62 -14.87,-105.16 -203.36,-302.34 -188.45,-197.18 -546.14,-538.88 -735.06,-725.4 -188.91,-186.52 -209.08,-217.81 -236.82,-233.15 -27.66,-15.3 -62.85,-14.64 -611.9,-14.33 -549.04,0.31 -1611.89,0.31 -2163.49,0.31 -551.63,0 -591.92,0 -622.64,9.08 -30.67,9.08 -51.77,27.24 -237.67,237.63 -185.9,210.39 -536.68,613.02 -722.58,833.41 -185.9,220.36 -206.95,258.41 -211.32,294.73 -4.4,36.24 7.88,70.7 169.21,277.5 161.37,206.76 471.82,585.78 624.41,778.09 152.6,192.23 147.3,197.68 -152.6,200.39 -299.9,2.7 -894.49,2.7 -1222.44,-2.7 -327.99,-5.45 -389.37,-16.38 -443.77,-39.02 -54.36,-22.68 -101.68,-57.14 -140.27,-94.3 -38.59,-37.2 -68.42,-77.07 -92.1,-113.35 -23.68,-36.31 -41.22,-68.92 -55.24,-100.68 -14.02,-31.76 -24.53,-62.58 -28.9,-418.08 -4.4,-355.46 -2.67,-1035.62 2.51,-1390.99 5.1,-355.42 13.68,-386.01 61.43,-479.43 47.75,-93.37 134.63,-249.53 181.8,-334.21 47.13,-84.72 54.43,-97.97 77.96,-27.27 23.49,70.66 63.13,225.26 101.26,353.83 38.17,128.57 74.75,231.1 113.69,299.75 38.9,68.61 80.05,103.3 117.48,134.09 37.36,30.75 70.89,57.56 109.06,78.89 38.13,21.25 80.82,37.05 129.65,48.91 48.83,11.82 103.77,19.66 146.49,24.45 42.69,4.71 73.17,6.26 112.88,11.01 39.64,4.75 88.47,12.59 141.86,12.59 53.39,0 111.34,-7.84 157.85,-17.35 46.55,-9.46 81.63,-20.48 111.42,-41.76 29.71,-21.33 54.12,-52.85 93.8,-93.07 39.64,-40.25 94.57,-89.16 155.61,-138.07 61,-48.91 128.1,-97.78 175.39,-139.58 47.32,-41.84 74.79,-76.53 87.77,-118.33 12.94,-41.84 11.4,-90.71 10.59,-115.36 -0.89,-24.69 -1.08,-25.11 -11.09,-30.79 -10.08,-5.72 -29.98,-16.69 -127.49,-27.66 -97.51,-11.01 -272.63,-21.98 -396.68,-41.14 -124.05,-19.24 -197.02,-46.71 -283.25,-85.11 -86.27,-38.4 -185.78,-87.85 -292.56,-152.98 -106.82,-65.17 -220.9,-146.11 -280.51,-202.82 -59.61,-56.75 -64.75,-89.24 -33.26,-145.61 31.45,-56.4 99.48,-136.72 143.98,-188.6 44.5,-51.88 65.44,-75.29 83.33,-99.21 17.89,-23.91 32.72,-48.29 40.99,-64.52 8.31,-16.23 10.04,-24.38 14.8,-30.4 4.75,-6.07 12.44,-9.97 1110.41,-15.72z"/>
  <path class="fil1" d="M22736.72 32906.4c-1495.76,-1896.65 -5484.74,-6563.51 -6321.17,-8455.91 -1613.32,-3649.98 -784.39,-7536.73 2477.45,-9974.97 6881.57,-4188.47 14389.91,3251.95 10730.15,9997.03l-298.9 550.82c-367.43,599.11 -784.43,1186.9 -1181.99,1767.93 -1413.67,2070.19 -3343.04,4344.32 -4925,6345.16 -103.8,182.65 -224.26,81.75 -305.54,0 -81.28,-81.78 -175,-230.06 -175,-230.06zm175.35 1367.24c87.31,89.59 216.73,200.12 328.18,0 1699.4,-2192.07 3772.02,-4683.62 5290.65,-6951.72 427.12,-636.62 875.06,-1280.58 1269.77,-1936.95l321.07 -603.47c3931.49,-7389.97 -4134.31,-15541.69 -11526.79,-10952.75 -3504.06,2671.35 -4394.46,6929.67 -2661.42,10928.53 898.55,2073.36 5183.68,7186.34 6790.51,9264.37 0,0 100.68,162.45 188.02,252z"/>
  <path class="fil2" d="M16376.07 18469.48c-1046.66,2977.58 -119.68,6312.36 2294.26,8261.17 236.89,108.21 371.53,-78.66 234.15,-310.53 -2282.47,-1845.27 -3159.85,-5000.29 -2170.79,-7818.71 992.89,-2829.39 3639.51,-4672.03 6548.67,-4559.38 2909.2,112.65 5415.13,2154.79 6200.52,5052.99 785.43,2898.23 -321.11,5983.64 -2750.19,7642.62 -135.25,196.52 -71.32,404.33 203.48,321.58 2558.31,-1756.26 3728.17,-5018.6 2895.49,-8074.65 -832.64,-3056.12 -3477.48,-5207.48 -6546.36,-5324.88 -3068.79,-117.48 -5860.32,1825.8 -6909.23,4809.8z"/>
  <path class="fil1" d="M17023.89 19501.15c-627.2,2919.75 784.66,5897.6 3396.67,7174.44l-2.32 -573.53c-2324.12,-1256.44 -3524.11,-3990.17 -2904.68,-6628.99 622.52,-2651.84 2920.33,-4517.77 5559.22,-4514.18 2638.86,3.55 4931.99,1875.56 5547.79,4529.13 615.8,2653.54 -605.99,5397.97 -2955.91,6639.54l0 570.68c2635.84,-1260.96 4069.29,-4247.35 3446.93,-7180.81 -622.4,-2933.39 -3133.35,-5024.78 -6037.49,-5028.73 -2904.18,-3.9 -5420.38,2080.73 -6050.2,5012.46z"/>
  <path class="fil1" d="M21739.85 24338.45c-664.17,777.01 -924.9,1440.1 -710.8,2485.64 123.7,604.02 1358.97,3348.14 1933.62,3662.92 578.21,316.71 1855.16,-2651.14 2024.25,-3118.01 917.59,-2533.89 -1376.08,-4507.23 -3247.08,-3030.55zm307.86 1832.68c0,-611.55 479.39,-1107.32 1070.77,-1107.32 591.38,0 1070.77,495.77 1070.77,1107.32 0,611.55 -479.39,1107.28 -1070.77,1107.28 -591.38,0 -1070.77,-495.73 -1070.77,-1107.28z"/>
  <rect class="fil3" width="46609.85" height="46609.85"/>
 </g>
</svg>
