<?xml version="1.0" encoding="UTF-8"?>
<!DOCTYPE svg PUBLIC "-//W3C//DTD SVG 1.1//EN" "http://www.w3.org/Graphics/SVG/1.1/DTD/svg11.dtd">
<!-- Creator: CorelDRAW (Versão de avaliação) -->
<svg xmlns="http://www.w3.org/2000/svg" xml:space="preserve" width="20.7251mm" height="28.5221mm" version="1.1" style="shape-rendering:geometricPrecision; text-rendering:geometricPrecision; image-rendering:optimizeQuality; fill-rule:evenodd; clip-rule:evenodd"
viewBox="0 0 946.62 1302.75"
 xmlns:xlink="http://www.w3.org/1999/xlink"
 xmlns:xodm="http://www.corel.com/coreldraw/odm/2003">
 <defs>
  <style type="text/css">
   <![CDATA[
    .str0 {stroke:#131C25;stroke-width:12.08;stroke-miterlimit:22.9256}
    .fil2 {fill:#677D9A}
    .fil0 {fill:#131C25}
    .fil1 {fill:#CBD1CF}
   ]]>
  </style>
 </defs>
 <g id="Camada_x0020_1">
  <metadata id="CorelCorpID_0Corel-Layer"/>
  <path class="fil0 str0" d="M473.91 732.12c32.95,0 59.65,27.62 59.65,61.69 0,34.07 -26.71,61.68 -59.65,61.68 -32.95,0 -59.65,-27.62 -59.65,-61.68 0,-34.07 26.71,-61.69 59.65,-61.69zm-76.8 -40.41c104.24,-82.27 232.01,27.67 180.89,168.83 -9.42,26.01 -80.56,191.34 -112.77,173.7 -32.01,-17.53 -100.83,-170.41 -107.72,-204.06 -11.93,-58.24 2.6,-95.19 39.6,-138.47zm-262.72 -269.48c-34.94,162.66 43.72,328.55 189.23,399.68l-0.13 -31.95c-129.48,-69.99 -196.33,-222.29 -161.82,-369.3 34.68,-147.73 162.69,-251.68 309.7,-251.48 147.01,0.2 274.76,104.49 309.06,252.32 34.31,147.82 -33.76,300.72 -164.67,369.88l0 31.79c146.84,-70.25 226.7,-236.62 192.03,-400.04 -34.67,-163.42 -174.56,-279.92 -336.34,-280.14 -161.79,-0.22 -301.97,115.91 -337.06,279.24zm-36.09 -57.47c-58.31,165.88 -6.67,351.66 127.81,460.22 13.2,6.03 20.7,-4.38 13.04,-17.3 -127.16,-102.8 -176.04,-278.56 -120.93,-435.57 55.31,-157.62 202.75,-260.28 364.82,-254 162.07,6.28 301.68,120.04 345.43,281.5 43.75,161.46 -17.89,333.35 -153.21,425.77 -7.54,10.95 -3.97,22.53 11.34,17.92 142.52,-97.85 207.69,-279.59 161.31,-449.84 -46.39,-170.25 -193.73,-290.11 -364.69,-296.65 -170.96,-6.55 -326.48,101.72 -384.91,267.95zm381.12 817.09c-5.78,10.17 -12.49,4.55 -17.02,0 -4.53,-4.56 -9.75,-12.82 -9.75,-12.82 -83.33,-105.66 -305.55,-365.65 -352.15,-471.08 -89.87,-203.34 -43.7,-419.86 138.02,-555.7 383.37,-233.34 801.65,181.16 597.77,556.93l-16.65 30.69c-20.47,33.37 -43.7,66.12 -65.85,98.49 -78.75,115.33 -186.24,242.02 -274.37,353.48zm1.28 63.35c-6.21,11.15 -13.42,4.99 -18.29,0 -4.86,-4.99 -10.47,-14.04 -10.47,-14.04 -89.51,-115.76 -328.24,-400.61 -378.3,-516.11 -96.54,-222.78 -46.94,-460 148.27,-608.82 411.83,-255.64 861.17,198.48 642.15,610.17l-17.89 33.62c-21.99,36.57 -46.94,72.44 -70.74,107.9 -84.6,126.36 -200.07,265.16 -294.74,387.28zm-0.02 44.89c-6.48,11.8 -14,5.28 -19.08,0 -5.07,-5.28 -10.93,-14.87 -10.93,-14.87 -93.41,-122.56 -342.53,-424.12 -394.77,-546.4 -100.75,-235.85 -48.98,-487 154.72,-644.55 429.77,-270.65 898.67,210.13 670.11,645.98l-18.66 35.59c-22.95,38.71 -48.99,76.69 -73.82,114.24 -88.29,133.77 -208.78,280.72 -307.57,410.01z"/>
  <path class="fil1" d="M287.29 316.03c2.73,-7.04 8.05,-20.75 14.42,-32.57 6.37,-11.82 13.77,-21.76 22.47,-30.15 8.71,-8.4 18.71,-15.25 26.11,-19.21 7.4,-3.96 12.21,-5.04 17.6,-5.85 5.39,-0.8 11.37,-1.34 43.52,-1.74 32.15,-0.4 90.48,-0.67 122.5,-0.14 32.02,0.54 37.74,1.89 43.65,4.23 5.91,2.35 12.01,5.71 17.99,10.14 5.97,4.43 11.82,9.94 20.52,21.62 8.71,11.69 20.27,29.56 26.7,40.37 6.43,10.81 7.73,14.57 9.68,16.79 1.95,2.22 4.54,2.89 9.84,3.19 5.29,0.3 13.29,0.23 21.72,0.11 8.43,-0.12 17.31,-0.3 23.8,0.46 6.49,0.75 10.59,2.44 14.15,4.82 3.57,2.38 6.6,5.46 8.77,9.03 2.16,3.57 3.45,7.64 3.26,12.35 -0.2,4.7 -1.88,10.05 -4.45,15.31 -2.57,5.27 -6.02,10.46 -9.01,13.82 -2.99,3.36 -5.51,4.9 -8.77,5.54 -3.26,0.63 -7.27,0.37 -10.27,0.06 -3.01,-0.3 -5.01,-0.63 -6.27,-0.7 -1.26,-0.06 -1.78,0.14 -1.97,0.54 -0.19,0.4 -0.06,1 2.94,4.47 3.01,3.47 8.88,9.8 14.59,16.45 5.7,6.64 11.23,13.6 15.05,19.86 3.81,6.26 5.9,11.83 7.4,19.78 1.49,7.96 2.39,18.32 2.99,27.67 0.6,9.35 0.9,17.69 0.61,43.93 -0.29,26.23 -1.16,70.35 -2.54,94.36 -1.38,24.02 -3.27,27.93 -5.76,32.02 -2.49,4.08 -5.59,8.35 -9.71,13.15 -4.12,4.8 -9.28,10.14 -16.16,13.33 -6.87,3.2 -15.47,4.27 -23.81,4.62 -8.34,0.36 -16.42,0 -23.29,-1.06 -6.87,-1.07 -12.55,-2.85 -17.62,-5.51 -5.07,-2.67 -9.54,-6.22 -12.38,-9.42 -2.84,-3.2 -4.04,-6.05 -4.64,-11.56 -0.6,-5.51 -0.6,-13.69 -0.63,-18.48 -0.02,-4.78 -0.07,-6.18 -0.68,-6.95 -0.61,-0.77 -1.79,-0.92 -5.1,-1.67 -3.32,-0.74 -8.78,-2.07 -18.73,-3.69 -9.95,-1.61 -24.38,-3.49 -41.41,-5.03 -17.03,-1.55 -36.67,-2.76 -58.19,-3.63 -21.51,-0.87 -44.92,-1.41 -64.42,-0.34 -19.5,1.08 -35.11,3.77 -52.59,6.59 -17.49,2.82 -36.86,5.78 -48.04,7.33 -11.18,1.55 -14.17,1.68 -15.92,2.42 -1.76,0.74 -2.28,2.08 -2.54,6.18 -0.26,4.1 -0.26,10.96 -0.71,15.53 -0.46,4.57 -1.37,6.86 -2.73,9.35 -1.37,2.48 -3.18,5.17 -4.94,7.06 -1.76,1.88 -3.45,2.96 -5.4,4.23 -1.95,1.28 -4.16,2.76 -6.44,3.9 -2.27,1.14 -4.62,1.95 -6.63,2.49 -2.01,0.53 -3.7,0.8 -6.5,1.03 -2.79,0.22 -6.69,0.4 -10.84,0.49 -4.15,0.09 -8.56,0.09 -12.07,0.03 -3.5,-0.06 -6.11,-0.18 -9.04,-0.41 -2.94,-0.23 -6.22,-0.58 -8.31,-0.93 -2.1,-0.35 -3,-0.7 -4.41,-1.52 -1.41,-0.82 -3.33,-2.11 -5.54,-3.69 -2.21,-1.58 -4.69,-3.45 -7.12,-5.32 -2.43,-1.87 -4.81,-3.75 -6.79,-5.61 -1.98,-1.87 -3.56,-3.74 -5.08,-5.61 -1.53,-1.87 -3,-3.74 -4.13,-5.38 -1.13,-1.64 -1.92,-3.04 -2.71,-6.4 -0.79,-3.36 -1.57,-8.68 -1.96,-17.46 -0.39,-8.78 -0.39,-21.02 -0.26,-47.03 0.13,-26.02 0.39,-65.82 0.67,-90.69 0.27,-24.88 0.57,-34.83 1.45,-42.14 0.88,-7.31 2.36,-11.99 4.57,-16 2.21,-4.01 5.16,-7.37 9.88,-12.47 4.72,-5.1 11.21,-11.94 15.31,-16.09 4.1,-4.15 5.81,-5.61 7.19,-6.96 1.37,-1.35 2.42,-2.58 2.34,-3.46 -0.08,-0.89 -1.27,-1.43 -4.13,-1.95 -2.87,-0.53 -7.43,-1.03 -11.55,-1.95 -4.12,-0.92 -7.81,-2.26 -10.94,-4.49 -3.13,-2.23 -5.71,-5.35 -7.81,-9.35 -2.1,-4 -3.71,-8.88 -4.49,-12.39 -0.78,-3.51 -0.71,-5.65 -0.48,-7.93 0.23,-2.27 0.61,-4.68 1.63,-7.43 1.01,-2.75 2.65,-5.82 3.66,-8.02 1,-2.19 1.38,-3.5 2.42,-4.58 1.04,-1.07 2.75,-1.92 5.95,-2.31 3.2,-0.38 7.88,-0.31 14.84,-0.23 6.96,0.07 16.18,0.15 22.84,0.38 6.66,0.23 10.75,0.61 14.32,0.77 3.57,0.16 6.62,0.08 8.92,-0.19 2.29,-0.27 3.83,-0.74 4.81,-1.15 0.98,-0.42 1.4,-0.79 1.68,-1.17 0.28,-0.38 0.42,-0.77 3.15,-7.81zm-45.28 31.67c4.34,0 11.72,0 15.87,0.6 4.14,0.6 5.05,1.81 5.5,3.42 0.46,1.61 0.46,3.62 -0.13,5.49 -0.58,1.88 -1.75,3.62 -3.82,4.22 -2.07,0.6 -5.05,0.06 -8.74,-0.33 -3.7,-0.4 -8.1,-0.67 -11.34,-1.61 -3.24,-0.94 -5.31,-2.54 -6.28,-4.42 -0.97,-1.88 -0.84,-4.01 -0.32,-5.29 0.52,-1.27 1.43,-1.68 2.53,-1.88 1.1,-0.2 2.39,-0.2 6.73,-0.2zm435.01 0.53c2.19,-0.03 6.25,-0.03 9.5,0.07 3.26,0.1 5.71,0.3 8.16,0.63 2.45,0.33 4.9,0.8 6.02,2.1 1.13,1.3 0.93,3.43 0.22,5.2 -0.71,1.77 -1.93,3.17 -3.42,4.13 -1.48,0.96 -3.22,1.5 -5.02,1.6 -1.8,0.1 -3.68,-0.23 -5.64,-0.53 -1.96,-0.3 -4.03,-0.57 -5.74,-1.13 -1.7,-0.57 -3.06,-1.43 -4.25,-2.27 -1.19,-0.84 -2.22,-1.63 -3.03,-2.37 -0.8,-0.74 -1.38,-1.4 -1.8,-2 -0.42,-0.6 -0.68,-1.13 -0.87,-1.86 -0.2,-0.74 -0.32,-1.67 0.08,-2.34 0.41,-0.67 1.34,-1.09 1.93,-1.22 0.58,-0.13 0.81,0.01 1.09,0.05 0.27,0.04 0.58,-0.03 2.77,-0.05zm-315.83 -1.44c53.66,-0.11 160.41,-0.21 213.59,-0.26 53.18,-0.05 52.78,-0.05 44.52,-12.27 -8.25,-12.22 -24.36,-36.65 -33.27,-50.02 -8.91,-13.36 -10.64,-15.65 -45.15,-16.49 -34.51,-0.84 -101.8,-0.22 -137.03,0.2 -35.23,0.42 -38.4,0.66 -48.77,12.81 -10.36,12.15 -27.93,36.2 -37.49,49.07 -9.57,12.87 -11.14,14.55 -11.68,15.57 -0.54,1.02 -0.04,1.38 0.5,1.5 0.54,0.12 1.12,0 54.79,-0.11z"/>
  <path class="fil0 str0" d="M374.13 571.02l-12.51 -17.69 212.12 0 -13.27 17.69 -186.34 0zm-32.26 -49.78l250.64 0 0 11.09 -250.64 0 0 -11.09zm206.81 -44.66l-164.37 0 -23.97 25.48 211.62 -0.35 -23.29 -25.13zm-201.79 -92.94c61.17,-0.32 183.07,-0.74 244.39,-0.26 61.32,0.48 62.06,1.86 64.74,6 2.67,4.14 7.27,11.05 9.42,15.34 2.15,4.3 1.85,5.99 -11.68,11.41 -13.53,5.42 -40.29,14.57 -54.85,19.65 -14.55,5.08 -16.89,6.09 -18.06,7.2 -1.17,1.11 -1.17,2.32 4.25,8.37 5.41,6.05 16.24,16.95 23.66,23.2 7.42,6.26 11.42,7.87 15.17,8.93 3.75,1.06 7.27,1.56 9.56,1.72 2.29,0.15 3.37,-0.05 5.07,-0.61 1.71,-0.55 4.05,-1.46 7.46,-2.87 3.42,-1.42 7.9,-3.33 12.98,-6.81 5.07,-3.48 10.73,-8.53 15.02,-13.98 4.29,-5.44 7.22,-11.3 8.78,-17.5 1.56,-6.21 1.75,-12.76 1.85,-16.54 0.1,-3.79 0.1,-4.8 2.63,-0.46 2.54,4.34 7.61,14.02 10.17,20.16 2.56,6.14 2.59,8.73 2.65,12.59 0.05,3.85 0.13,8.96 0.28,27.21 0.15,18.25 0.38,49.64 0,65.94 -0.37,16.3 -1.35,17.51 -2.6,19.38 -1.26,1.87 -2.79,4.4 -5.96,7.93 -3.16,3.54 -7.95,8.08 -10.93,10.61 -2.98,2.52 -4.15,3.03 -20.61,3.23 -16.46,0.2 -48.21,0.1 -64.43,-0.4 -16.21,-0.51 -16.9,-1.42 -17.05,-2.73 -0.15,-1.31 0.25,-3.03 7.82,-13.54 7.57,-10.51 22.33,-29.8 30.48,-40.92 8.16,-11.11 9.72,-14.04 9.97,-16.97 0.25,-2.93 -0.83,-5.86 -11.33,-16.84 -10.5,-10.98 -30.42,-30.02 -40.95,-40.41 -10.53,-10.39 -11.65,-12.13 -13.2,-12.99 -1.54,-0.85 -3.5,-0.82 -34.09,-0.8 -30.59,0.02 -89.8,0.02 -120.53,0.02 -30.73,0 -32.98,0 -34.69,0.5 -1.71,0.51 -2.88,1.52 -13.24,13.24 -10.35,11.72 -29.89,34.15 -40.25,46.43 -10.35,12.27 -11.53,14.4 -11.78,16.42 -0.24,2.02 0.44,3.94 9.43,15.46 8.99,11.52 26.28,32.63 34.78,43.35 8.5,10.71 8.21,11.01 -8.5,11.16 -16.71,0.15 -49.83,0.15 -68.1,-0.15 -18.27,-0.3 -21.69,-0.91 -24.72,-2.17 -3.03,-1.27 -5.67,-3.19 -7.82,-5.26 -2.15,-2.07 -3.81,-4.29 -5.13,-6.31 -1.32,-2.02 -2.3,-3.84 -3.08,-5.61 -0.78,-1.77 -1.37,-3.49 -1.61,-23.29 -0.25,-19.8 -0.15,-57.7 0.14,-77.49 0.28,-19.8 0.76,-21.5 3.42,-26.71 2.66,-5.2 7.5,-13.9 10.13,-18.62 2.63,-4.72 3.03,-5.46 4.34,-1.52 1.31,3.94 3.52,12.55 5.64,19.71 2.13,7.16 4.17,12.88 6.34,16.7 2.17,3.82 4.46,5.76 6.55,7.47 2.08,1.71 3.95,3.21 6.07,4.39 2.12,1.19 4.5,2.07 7.22,2.73 2.72,0.66 5.78,1.1 8.16,1.36 2.38,0.26 4.08,0.35 6.29,0.62 2.21,0.26 4.93,0.7 7.9,0.7 2.97,0 6.2,-0.43 8.8,-0.96 2.59,-0.53 4.54,-1.14 6.2,-2.33 1.66,-1.19 3.02,-2.94 5.23,-5.18 2.21,-2.24 5.27,-4.96 8.67,-7.69 3.4,-2.72 7.14,-5.44 9.77,-7.77 2.64,-2.33 4.17,-4.27 4.89,-6.6 0.72,-2.33 0.63,-5.05 0.59,-6.43 -0.05,-1.37 -0.06,-1.4 -0.62,-1.71 -0.56,-0.32 -1.67,-0.93 -7.1,-1.54 -5.43,-0.61 -15.19,-1.22 -22.1,-2.29 -6.91,-1.07 -10.98,-2.6 -15.78,-4.74 -4.81,-2.14 -10.35,-4.89 -16.3,-8.52 -5.95,-3.63 -12.31,-8.14 -15.63,-11.3 -3.32,-3.16 -3.6,-4.97 -1.85,-8.11 1.75,-3.14 5.54,-7.61 8.02,-10.51 2.48,-2.89 3.64,-4.2 4.64,-5.53 1,-1.33 1.82,-2.69 2.28,-3.59 0.47,-0.9 0.56,-1.36 0.83,-1.69 0.26,-0.34 0.69,-0.56 61.86,-0.88z"/>
  <path class="fil1" d="M452.64 1169.03c-83.33,-105.66 -305.55,-365.65 -352.15,-471.08 -89.87,-203.34 -43.7,-419.86 138.02,-555.7 383.37,-233.34 801.65,181.16 597.77,556.93l-16.65 30.69c-20.47,33.37 -43.7,66.12 -65.85,98.49 -78.75,115.33 -186.24,242.02 -274.37,353.48 -5.78,10.17 -12.49,4.55 -17.02,0 -4.53,-4.56 -9.75,-12.82 -9.75,-12.82zm9.77 76.17c4.86,4.99 12.08,11.15 18.29,0 94.67,-122.12 210.13,-260.92 294.74,-387.28 23.79,-35.46 48.75,-71.34 70.74,-107.9l17.89 -33.62c219.02,-411.69 -230.32,-865.82 -642.15,-610.17 -195.21,148.82 -244.81,386.05 -148.27,608.82 50.06,115.5 288.78,400.35 378.3,516.11 0,0 5.61,9.05 10.47,14.04z"/>
  <path class="fil2" d="M98.29 364.76c-58.31,165.88 -6.67,351.66 127.81,460.22 13.2,6.03 20.7,-4.38 13.04,-17.3 -127.16,-102.8 -176.04,-278.56 -120.93,-435.57 55.31,-157.62 202.75,-260.28 364.82,-254 162.07,6.28 301.68,120.04 345.43,281.5 43.75,161.46 -17.89,333.35 -153.21,425.77 -7.54,10.95 -3.97,22.53 11.34,17.92 142.52,-97.85 207.69,-279.59 161.31,-449.84 -46.39,-170.25 -193.73,-290.11 -364.69,-296.65 -170.96,-6.55 -326.48,101.72 -384.91,267.95z"/>
  <path class="fil1" d="M134.38 422.23c-34.94,162.66 43.72,328.55 189.23,399.68l-0.13 -31.95c-129.48,-69.99 -196.33,-222.29 -161.82,-369.3 34.68,-147.73 162.69,-251.68 309.7,-251.48 147.01,0.2 274.76,104.49 309.06,252.32 34.31,147.82 -33.76,300.72 -164.67,369.88l0 31.79c146.84,-70.25 226.7,-236.62 192.03,-400.04 -34.67,-163.42 -174.56,-279.92 -336.34,-280.14 -161.79,-0.22 -301.97,115.91 -337.06,279.24z"/>
  <path class="fil1" d="M397.1 691.71c-37,43.29 -51.53,80.23 -39.6,138.47 6.89,33.65 75.71,186.52 107.72,204.06 32.21,17.64 103.35,-147.7 112.77,-173.7 51.12,-141.16 -76.66,-251.09 -180.89,-168.83zm17.15 102.1c0,-34.07 26.71,-61.69 59.65,-61.69 32.95,0 59.65,27.62 59.65,61.69 0,34.07 -26.71,61.68 -59.65,61.68 -32.95,0 -59.65,-27.62 -59.65,-61.68z"/>
 </g>
</svg>
